<svg width="24" height="22" viewBox="0 0 24 22" fill="none" xmlns="http://www.w3.org/2000/svg">
<path fill-rule="evenodd" clip-rule="evenodd" d="M3.56604 12.127L3.58492 12.1478C4.84408 13.5361 7.2116 15.7186 9.32962 17.6057C9.80732 18.0314 10.2679 18.438 10.6942 18.8122C11.4416 19.4682 12.5584 19.4682 13.3058 18.8122C13.7321 18.438 14.1927 18.0314 14.6704 17.6057C16.7884 15.7186 19.1559 13.5361 20.4151 12.1478L20.434 12.127L20.4534 12.1067C21.4876 11.0311 22.125 9.54308 22.125 7.89474C22.125 4.62463 19.6066 1.97368 16.5 1.97368C15.2315 1.97368 14.066 2.41328 13.1261 3.15646C12.4661 3.67832 11.5339 3.67832 10.8739 3.15646C9.93398 2.41328 8.76846 1.97368 7.5 1.97368C4.3934 1.97368 1.875 4.62463 1.875 7.89474C1.875 9.54308 2.51241 11.0311 3.54659 12.1067L3.56604 12.127ZM13.287 21.3921C12.5457 22.0349 11.4543 22.0349 10.7131 21.3921C8.54143 19.509 4.19433 15.678 2.22872 13.5107C0.852683 12.0794 0 10.0919 0 7.89474C0 3.5346 3.35786 0 7.5 0C8.63112 0 9.70375 0.263577 10.6655 0.735566C11.4976 1.14391 12.5024 1.14391 13.3345 0.735566C14.2962 0.263577 15.3689 0 16.5 0C20.6421 0 24 3.5346 24 7.89474C24 10.0919 23.1473 12.0794 21.7713 13.5107C19.8057 15.678 15.4586 19.509 13.287 21.3921Z" fill="#03257C"/>
</svg>
