<svg width="28" height="28" viewBox="0 0 28 28" fill="none" xmlns="http://www.w3.org/2000/svg">
<path fill-rule="evenodd" clip-rule="evenodd" d="M4.16038 15.0231L4.18241 15.0474C5.65143 16.6672 8.41354 19.2134 10.8846 21.415C11.524 21.9847 12.137 22.5253 12.6937 23.013C13.4417 23.6683 14.5583 23.6683 15.3063 23.013C15.863 22.5253 16.476 21.9847 17.1154 21.415C19.5865 19.2134 22.3486 16.6672 23.8176 15.0474L23.8396 15.0231L23.8623 14.9995C25.0689 13.7446 25.8125 12.0086 25.8125 10.0855C25.8125 6.2704 22.8744 3.17763 19.25 3.17763C17.7701 3.17763 16.4104 3.6905 15.3138 4.55754L15.2404 4.61552C14.5134 5.19037 13.4866 5.19037 12.7596 4.61552L12.6862 4.55754C11.5896 3.6905 10.2299 3.17763 8.75 3.17763C5.12563 3.17763 2.1875 6.2704 2.1875 10.0855C2.1875 12.0086 2.93114 13.7446 4.13769 14.9995L4.16038 15.0231ZM15.2884 26.017C14.5465 26.6591 13.4535 26.6591 12.7116 26.017C10.2603 23.8953 4.95964 19.239 2.60018 16.6375C0.994797 14.9677 0 12.6489 0 10.0855C0 4.99869 3.91751 0.875 8.75 0.875C10.1624 0.875 11.4967 1.22727 12.6778 1.85291C13.4969 2.28675 14.5031 2.28675 15.3222 1.85291C16.5033 1.22727 17.8376 0.875 19.25 0.875C24.0825 0.875 28 4.99869 28 10.0855C28 12.6489 27.0052 14.9677 25.3998 16.6375C23.0404 19.239 17.7397 23.8953 15.2884 26.017Z" fill="#03257C"/>
</svg>
