<svg width="449" height="30" viewBox="0 0 449 30" fill="none" xmlns="http://www.w3.org/2000/svg">
    <path d="M42.2756 24.7634C41.1232 24.8847 39.9102 25.006 38.4546 24.8241C38.9398 18.5176 39.7283 12.4538 40.3348 6.14733C42.7001 6.02606 45.0049 6.02605 47.249 6.02605C48.2194 8.63352 48.6439 11.241 49.7963 13.6059C50.9487 11.241 51.1913 8.63352 52.3436 6.0867C54.4664 5.84414 56.6498 5.96542 58.8939 6.02605C59.6217 12.3325 60.3495 18.3964 61.0774 24.7634C58.8333 24.8847 56.7711 24.8847 54.5877 24.7634C54.1632 21.4889 53.7386 18.457 53.314 15.3644C51.8584 18.3964 51.3732 21.7315 50.1602 24.7634H47.1883C46.0966 21.6709 45.0655 18.3964 43.9738 15.3038C43.0641 15.4857 42.2756 24.7634 42.2756 24.7634Z" fill="#191C26"/>
    <path d="M114.268 11.8473C116.209 12.2112 117.361 13.6665 118.938 14.2122C119.908 13.5452 120.818 12.8782 121.728 12.2112C123.729 10.6952 127.308 13.6665 128.46 15.1218C130.522 17.8506 130.401 21.6102 130.037 24.824C128.157 25.0059 126.277 24.8847 124.397 24.824C124.033 23.3081 125.61 15.9708 121.485 15.6676C121.485 18.6995 121.485 21.7314 121.485 24.8847C119.545 24.9453 117.846 24.9453 116.209 24.8847C115.784 24.3996 115.906 23.9144 115.906 23.49C115.906 22.0346 116.391 15.0612 113.176 16.0314C113.176 18.8814 113.176 21.7921 113.176 24.8847C111.053 24.8847 109.234 25.0666 107.232 24.8847C107.232 22.0346 107.232 19.3059 107.232 16.4559C109.598 15.0005 111.842 13.1208 114.268 11.8473Z" fill="#191C26"/>
    <path d="M243.515 22.0347C243.151 22.6411 242.605 22.823 242.181 23.0655C241.089 23.6113 239.937 24.0964 238.845 24.7028C237.814 25.2485 236.844 25.1879 235.812 24.8847C235.024 24.6421 234.236 24.3996 233.508 24.157C232.355 23.7326 231.264 23.6719 230.233 24.5208C230.051 24.6421 229.808 24.7028 229.323 24.5815C229.262 19.9729 229.323 15.3038 229.323 10.5739C230.9 9.54308 232.295 8.33031 233.993 7.54201C236.844 6.20795 241.271 7.90584 242.423 10.5739C242.666 11.1803 242.787 11.8474 242.666 12.5144C241.999 13.3027 240.786 13.424 240.058 14.3942C241.21 15.3644 242.727 15.9708 243.212 17.608C243.576 19.1846 243.515 20.64 243.515 22.0347ZM237.814 22.7017C238.36 20.2155 237.511 17.79 234.963 17.608C234.175 20.1549 235.388 22.5198 237.814 22.7017ZM237.875 12.5144C237.814 10.6952 236.722 9.725 234.781 9.725C234.66 11.0591 234.599 12.3931 234.721 13.9091C235.934 13.5452 236.904 13.1208 237.875 12.5144Z" fill="#191C26"/>
    <path d="M168.065 25.1273C167.702 26.0975 168.065 26.9465 167.58 27.7954C165.761 27.856 163.82 27.856 161.818 27.7348C161.818 22.4592 161.818 17.2443 161.818 11.908C163.699 11.7261 165.579 11.7868 167.459 11.908C167.823 12.3325 167.52 12.8783 167.944 13.2421C169.521 12.757 170.977 11.8474 172.614 11.241C174.494 12.2112 175.707 13.6666 176.132 15.7283C176.557 17.79 176.314 19.9124 176.314 22.156C173.585 23.5507 171.28 25.6124 168.065 25.1273ZM167.701 14.5762C167.52 16.3347 167.52 18.0326 167.641 19.6698C167.701 20.3975 167.883 21.0645 168.247 21.6709C168.672 22.4592 169.218 23.1262 170.37 23.1262C170.552 20.7613 170.673 18.5177 169.946 16.3347C169.642 15.4251 169.036 14.6368 167.701 14.5762Z" fill="#191C26"/>
    <path d="M203.728 11.9687C205.851 11.908 207.731 11.7868 209.793 11.9687C209.793 15.7283 209.793 19.4272 209.793 23.2475C211.006 22.9443 211.795 22.2772 212.826 22.2166C212.947 22.2166 213.068 22.2772 213.311 22.3985C213.19 23.5507 213.068 24.7028 212.947 25.8549C212.826 25.9156 212.765 25.9156 212.765 25.9156C210.521 24.6422 208.095 25.006 205.73 24.9453C205.184 24.9453 204.638 25.006 204.213 24.8847C203.668 24.5815 203.971 24.0358 203.607 23.7326C202.818 23.6113 202.212 24.2177 201.545 24.5209C200.574 25.006 199.665 25.6124 198.573 25.006C197.239 24.2783 195.965 23.4294 195.54 21.7921C194.994 19.9123 194.873 14.3942 195.237 12.0899C196.996 11.4836 198.876 11.9687 200.574 11.908C201.12 12.4538 200.999 12.9389 200.999 13.3634C200.999 15.3038 200.999 17.2442 201.06 19.1847C201.12 20.8826 201.848 21.7315 203.728 22.3379C203.728 18.8815 203.728 15.5464 203.728 11.9687Z" fill="#191C26"/>
    <path d="M72.4799 12.0293C74.542 11.8474 76.3615 11.908 78.181 11.908C78.5449 12.8176 78.6056 23.6719 78.2417 24.9454C76.4222 25.0666 74.6026 25.0666 72.9044 24.9454C72.4192 24.5815 72.4192 23.49 72.4192 23.49C72.1159 23.3687 70.9636 24.1571 70.2964 24.4602C69.326 24.9454 68.4163 25.6124 67.3245 25.0666C65.9296 24.339 64.5952 23.49 64.1707 21.8528C63.4429 18.6996 63.6248 15.5464 63.8068 12.1506C65.7476 11.6048 67.5671 11.908 69.326 11.9687C69.7506 12.4538 69.6293 12.9389 69.6293 13.3634C69.6293 15.3038 69.6293 17.2442 69.6899 19.1847C69.7506 20.9432 70.539 22.0953 72.4192 22.5804C72.4799 19.0634 72.4799 15.4857 72.4799 12.0293Z" fill="#191C26"/>
    <path d="M139.741 16.1527C138.589 13.4846 135.86 16.7591 134.04 16.5165C133.919 15.2431 133.98 14.0304 134.04 12.7569C135.011 11.7867 136.952 11.7261 138.286 11.6654C139.984 11.5442 141.804 11.6654 143.441 12.1506C144.897 12.575 145.503 13.3027 145.685 14.758C145.867 16.5772 145.928 18.457 145.928 20.3368C145.928 21.6102 145.928 24.8847 145.685 24.8847C144.048 24.8847 141.986 25.0666 140.287 25.0666C139.802 24.5209 140.105 23.8538 139.802 23.4294C138.892 23.0655 137.133 24.2783 136.345 24.6421C134.586 25.4304 134.101 25.3698 133.191 24.2177C131.857 22.5804 131.675 20.8825 132.706 19.6698C133.555 18.6389 134.768 17.9719 136.042 17.5474C136.952 17.2442 139.378 17.3048 139.741 16.1527ZM139.56 19.124C138.347 19.0634 137.558 19.6091 137.497 20.5793C137.437 21.5496 138.286 22.1559 139.62 22.0953C139.923 21.1251 139.923 20.0336 139.56 19.124Z" fill="#191C26"/>
    <path d="M191.477 25.1273C190.082 25.1273 188.626 25.1273 187.11 25.1273C186.867 25.1273 186.564 25.1879 186.321 25.006C185.958 24.5815 186.261 23.9145 185.958 23.49C185.533 23.2475 185.169 23.4294 184.805 23.6113C183.774 24.0964 182.743 24.5815 181.712 25.006C180.742 25.4305 180.135 25.3092 179.468 24.5209C179.165 24.1571 178.861 23.7326 178.619 23.2475C177.77 21.7315 178.073 20.2155 179.468 19.0634C181.045 17.79 182.925 17.3049 184.805 16.8804C185.23 16.7591 185.654 16.8804 185.897 16.3953C185.654 15.1825 185.169 14.8187 184.077 15.2432C183.228 15.5463 182.44 15.9102 181.591 16.274C181.227 16.4559 180.802 16.5772 180.317 16.7591C180.135 15.3644 180.256 14.091 180.196 12.8782C180.924 12.0899 181.894 12.0899 182.743 11.9687C184.987 11.6655 187.231 11.5442 189.475 12.2112C191.052 12.6963 191.719 13.3634 191.841 15.0006C192.083 17.9719 192.083 21.0038 191.901 23.9751C191.901 24.2783 191.841 24.6422 191.477 25.1273ZM185.958 19.0634C184.563 19.0634 183.713 19.7304 183.774 20.7006C183.835 21.6102 184.745 22.2166 185.958 22.0347C186.079 21.1251 186.2 20.1549 185.958 19.0634Z" fill="#191C26"/>
    <path d="M221.499 20.7006C222.469 21.4283 223.622 21.7315 224.713 22.0347C224.713 22.5198 224.41 22.6411 224.107 22.8836C223.44 23.3687 222.712 23.7932 222.105 24.3389C221.074 25.1879 220.104 25.2485 218.891 24.7634C215.798 23.6113 214.463 21.974 214.403 19.0027C214.403 18.0325 214.403 17.0623 214.403 16.0921C214.403 15.6676 214.403 15.2431 214.403 14.8793C215.191 13.9091 216.283 13.7272 217.193 13.3027C218.163 12.8176 219.194 12.4537 220.165 11.9686C221.196 11.4835 222.105 11.4229 223.137 12.0899C224.35 12.8782 225.684 13.6059 226.897 14.3942C227.261 14.6367 227.685 14.8187 227.867 15.2431C227.807 15.7889 227.321 15.9708 226.958 16.274C225.381 17.4261 223.804 18.5783 222.287 19.7304C221.984 19.9123 221.56 20.0942 221.499 20.7006ZM220.104 15.3644C219.983 16.3346 219.861 17.1836 220.165 18.1538C221.074 17.9719 221.62 17.4868 222.287 16.8197C221.681 16.1527 221.135 15.5463 220.104 15.3644Z" fill="#191C26"/>
    <path d="M156.481 13.9697C156.481 17.5474 156.481 21.1857 156.481 24.824L150.598 24.9453C150.598 21.307 150.598 17.4868 150.598 13.9697L147.565 13.9091C147.565 13.9091 147.565 12.575 147.626 11.908C151.508 11.8474 155.571 11.908 159.514 11.908L159.574 13.9697C159.392 13.9697 156.481 13.9697 156.481 13.9697Z" fill="#191C26"/>
    <path d="M96.4369 16.8804C96.1942 14.3942 94.9206 12.5144 92.7372 11.4835C91.0389 12.0293 89.5833 12.9995 88.0064 13.4846C87.5818 13.0601 87.8851 12.4537 87.4605 11.9686C85.7017 11.8474 83.8821 11.8474 82.1233 11.9686C81.6987 13.3633 82.1233 27.856 82.1233 27.856C84.0034 27.9166 86.3082 27.856 88.249 27.7347V25.1272C91.4635 25.6123 93.8895 23.49 96.4975 22.3379C96.4975 20.3974 96.6188 18.6389 96.4369 16.8804ZM90.4931 22.7017C90.4931 22.823 90.4324 23.0049 90.1898 23.1262C89.2194 23.0049 88.6129 22.2772 88.249 21.4283C87.3392 19.2453 87.7031 16.941 87.7638 14.6974C88.6735 14.4548 89.0981 14.9399 89.5227 15.3644C90.0685 15.9708 90.3718 16.7591 90.4324 17.608C90.5537 19.3059 90.5537 21.0038 90.4931 22.7017Z" fill="#191C26"/>
    <path d="M13.6483 28.2197C13.527 28.2197 13.4663 28.2197 13.345 28.2197C5.82431 28.0984 -0.119478 22.2771 0.00182404 15.3643C0.0624749 11.9685 1.57875 8.87595 4.18673 6.51104C6.79472 4.20677 10.2518 2.93335 13.8909 3.05463C21.4116 3.17591 27.3554 8.99722 27.2341 15.91C27.1734 19.3058 25.6571 22.3984 23.0491 24.7633C20.4412 27.0069 17.166 28.2197 13.6483 28.2197ZM0.42638 15.3643H0.911587C0.790285 21.792 6.37016 27.1888 13.345 27.3101C16.7415 27.3708 19.956 26.2186 22.382 24.0356C24.808 21.8526 26.203 19.0026 26.2636 15.8494C26.3849 9.42169 20.8051 4.02485 13.8302 3.90357C10.4338 3.84293 7.21928 4.99507 4.79324 7.17807C2.36721 9.36106 0.972238 12.2111 0.911587 15.3643H0.42638Z" fill="#47B3CC"/>
    <path d="M26.5071 15.4249H0.427246V16.0313H26.5071V15.4249Z" fill="#47B3CC"/>
    <path d="M13.7696 3.66101H13.1631V28.0378H13.7696V3.66101Z" fill="#47B3CC"/>
    <path d="M22.8671 23.6112C21.8361 21.9133 17.166 20.7005 13.4056 20.7005C8.85679 20.6399 5.2784 21.3069 2.97366 22.5197L2.67041 21.9739C5.03579 20.7005 8.73549 20.0941 13.4056 20.0941C17.2873 20.0941 22.2606 21.3069 23.413 23.308L22.8671 23.6112Z" fill="#47B3CC"/>
    <path d="M13.345 10.877C8.91745 10.877 3.51952 9.60358 2.67041 8.87592L3.09497 8.45145C3.64082 8.9972 8.79615 10.3313 13.4663 10.3313C17.6512 10.3313 22.6245 8.33017 22.9278 7.42059L23.5343 7.60251C23.1097 9.05784 17.3479 10.9376 13.5269 10.9376C13.4056 10.877 13.4056 10.877 13.345 10.877Z" fill="#47B3CC"/>
    <path d="M13.2238 28.0378C13.1025 27.9772 12.9812 27.9165 12.7992 27.8559C10.9797 27.0676 5.46045 24.7633 5.46045 15.6069C5.46045 6.32914 12.6779 3.6004 13.527 3.35785L13.709 3.96424C12.9205 4.20679 6.06696 6.81426 6.06696 15.6675C6.06696 24.3995 11.101 26.5825 13.0418 27.3708C13.2238 27.4314 13.3451 27.4921 13.4664 27.5527L13.2238 28.0378Z" fill="#47B3CC"/>
    <path d="M13.6482 2.99402V3.53977C17.0446 4.57063 19.7133 8.02703 20.2591 10.2707C20.4411 11.7866 20.3198 14.3941 19.9559 15.5462H21.4115C21.4115 16.2133 21.3508 16.8803 21.2295 17.5473C23.1097 17.5473 23.5949 16.5165 23.5949 16.5165C23.5949 18.1537 22.2 19.3665 20.8656 19.3058C19.7739 22.9442 17.0446 25.8548 13.6482 27.3102V28.0378C21.0476 28.0378 26.9914 22.459 26.9914 15.5462C26.9914 8.63342 20.9869 2.99402 13.6482 2.99402Z" fill="#47B3CC"/>
    <path fill-rule="evenodd" clip-rule="evenodd" d="M337.221 6.69303V24.5815H333.642V12.0899L329.033 24.5815H325.879L321.269 12.1505V24.5815H317.63V6.69303H321.997L327.456 20.1548L332.793 6.69303H337.221ZM353.839 16.941C353.839 17.3654 353.778 17.7899 353.718 18.1537H343.346C343.286 19.1846 343.65 20.2155 344.377 20.9431C344.984 21.5495 345.833 21.8527 346.743 21.8527C347.471 21.8527 348.198 21.6708 348.805 21.2463C349.351 20.8218 349.715 20.2761 349.897 19.6091H353.718C353.536 20.5793 353.111 21.4889 352.505 22.2772C351.898 23.0655 351.049 23.7325 350.139 24.0963C347.895 25.0666 345.408 24.9453 343.225 23.8538C342.133 23.2474 341.284 22.3985 340.738 21.307C339.525 18.8814 339.525 16.0314 340.738 13.5452C341.284 12.4537 342.194 11.6048 343.225 10.9984C344.377 10.392 345.651 10.0888 346.925 10.1494C348.198 10.1494 349.472 10.392 350.624 10.9984C351.656 11.5441 352.505 12.3931 353.05 13.3633C353.536 14.5154 353.839 15.7282 353.839 16.941ZM350.2 16.5771C350.321 15.6069 349.957 14.6367 349.29 13.909C348.623 13.3026 347.774 12.9995 346.864 12.9995C345.954 12.9995 345.105 13.3026 344.377 13.909C343.65 14.5761 343.286 15.5463 343.286 16.5771H350.2ZM365.605 21.7921H371.67V24.5815H361.966V6.51111H365.605V21.7921ZM379.373 10.2101C380.465 10.1494 381.556 10.4526 382.466 11.059C383.315 11.6048 383.922 12.3931 384.286 13.3633V10.392H387.864V24.5815H384.286V21.6101C383.922 22.5197 383.315 23.3687 382.466 23.9144C381.556 24.5208 380.465 24.824 379.373 24.7634C378.221 24.7634 377.129 24.4602 376.158 23.9144C375.188 23.308 374.4 22.4591 373.914 21.3676C372.823 18.8814 372.823 16.092 373.914 13.6058C374.4 12.575 375.188 11.6654 376.158 11.059C377.129 10.4526 378.221 10.1494 379.373 10.2101ZM380.465 13.3633C379.434 13.3026 378.463 13.7271 377.735 14.4548C377.008 15.3037 376.644 16.3952 376.704 17.4867C376.644 18.5782 377.008 19.6697 377.735 20.5187C379.252 21.974 381.678 21.974 383.133 20.5187C384.528 18.7601 384.528 16.2739 383.133 14.5154C382.466 13.7271 381.496 13.3026 380.465 13.3633ZM409.213 10.1494C410.729 10.0888 412.246 10.6345 413.277 11.726C414.247 12.8175 414.793 14.3335 414.793 16.2739V24.5208H411.215V16.6984C411.275 15.7888 410.972 14.8793 410.366 14.1516C409.759 13.5452 408.91 13.242 408.061 13.242C407.151 13.1814 406.302 13.5452 405.635 14.2122C404.968 15.0005 404.664 15.9708 404.725 17.0016V24.5208H401.147V16.6984C401.207 15.7888 400.904 14.8793 400.297 14.1516C399.691 13.5452 398.842 13.242 397.993 13.242C397.083 13.1814 396.234 13.5452 395.567 14.2122C394.9 15.0005 394.596 15.9708 394.657 17.0016V24.5208H391.018V10.3314H394.657V12.9995C395.021 12.0899 395.627 11.3622 396.416 10.8771C397.265 10.392 398.235 10.0888 399.266 10.1494C400.297 10.1494 401.329 10.392 402.238 10.9984C403.087 11.5441 403.755 12.3931 404.118 13.3633C405.089 11.3622 407.03 10.1494 409.213 10.1494ZM424.497 10.2101C425.771 10.2101 427.044 10.5133 428.197 11.059C429.289 11.6048 430.198 12.5143 430.805 13.6058C432.079 16.0314 432.079 18.942 430.805 21.3676C430.198 22.4591 429.289 23.308 428.197 23.9144C425.831 25.0666 423.102 25.0666 420.737 23.9144C419.645 23.308 418.735 22.4591 418.129 21.3676C416.855 18.942 416.855 16.0314 418.129 13.6058C418.735 12.5143 419.645 11.6654 420.737 11.059C421.95 10.4526 423.223 10.1494 424.497 10.2101ZM424.497 13.3026C423.527 13.3026 422.617 13.6665 421.95 14.3941C420.555 16.2133 420.555 18.7601 421.95 20.5793C423.345 21.974 425.65 21.974 427.045 20.5793C428.439 18.7601 428.439 16.2133 427.045 14.3941C426.377 13.6665 425.468 13.3026 424.497 13.3026ZM437.962 13.0601C438.447 12.1505 439.175 11.4228 440.084 10.9377C440.994 10.392 441.965 10.1494 442.996 10.1494V14.0303H441.965C439.296 14.0303 438.022 15.2431 438.022 17.7293V24.5815H434.383V10.392H438.022L437.962 13.0601ZM448.576 10.392V24.5815H444.937V10.392H448.576Z" fill="#191C26"/>
    <path fill-rule="evenodd" clip-rule="evenodd" d="M444.573 6.2685C444.573 5.72275 444.754 5.17701 445.179 4.87381C446.149 4.14615 447.484 4.14615 448.394 4.87381C448.818 5.23765 449 5.78339 449 6.2685C449 6.81425 448.818 7.29936 448.394 7.66319C447.423 8.39085 446.089 8.39085 445.179 7.66319C444.754 7.36 444.573 6.81425 444.573 6.2685Z" fill="#47B3CC"/>
    <path fill-rule="evenodd" clip-rule="evenodd" d="M289.428 22.0346L289.306 21.974C288.396 21.3676 287.608 20.6399 287.002 19.791L286.395 18.8814L286.334 18.8207C286.334 18.7601 286.274 18.7601 286.274 18.6995C283.181 13.3633 284.939 6.51108 290.277 3.41851C294.219 1.11424 299.132 1.41743 302.771 4.20681C304.287 5.35894 305.439 6.87491 306.167 8.57279C307.38 11.3015 307.38 14.4548 306.288 17.2441C305.682 18.6995 304.772 20.0335 303.681 21.125C300.284 24.3389 295.25 25.1272 291.005 23.0655C290.459 22.7623 289.913 22.3984 289.428 22.0346ZM292.945 0.0227396C291.854 0.0833784 290.762 0.265291 289.731 0.568484C287.487 1.17487 285.425 2.32701 283.726 3.90361C283.666 3.96425 283.544 4.02489 283.484 4.14617C283.423 4.20681 283.302 4.26745 283.241 4.38873C283.059 4.57064 282.938 4.69192 282.756 4.87384C282.453 5.17703 282.149 5.54086 281.907 5.90469C279.723 8.75471 278.632 12.2718 278.874 15.9101C278.935 17.0016 279.117 18.0324 279.42 19.1239C281.664 27.0676 289.913 31.6762 297.919 29.4325C298.828 29.19 299.738 28.8261 300.587 28.4017C301.376 27.9772 302.164 27.5527 302.892 26.9463C305.075 25.3091 306.713 23.0655 307.744 20.5793C309.867 15.2431 308.775 9.17919 304.894 4.99511C304.833 4.93447 304.772 4.8132 304.651 4.75256L303.923 4.02489C302.589 2.81212 301.012 1.8419 299.314 1.11423C297.312 0.265292 295.129 -0.0985378 292.945 0.0227396Z" fill="#191C26"/>
    <path fill-rule="evenodd" clip-rule="evenodd" d="M286.456 18.8207C286.274 18.3962 286.153 18.1537 285.91 17.4867C284.818 14.0302 286.092 10.2706 289.003 8.20893C291.611 6.38977 294.947 6.20785 297.737 7.66317C298.525 8.08765 299.253 8.6334 299.86 9.30043L300.284 9.78553C300.406 9.96745 300.527 10.1494 300.648 10.3313C300.891 10.6951 301.133 11.1196 301.315 11.5441C302.589 14.3941 302.164 17.7898 300.163 20.2154C299.86 20.5792 299.556 20.8824 299.253 21.1856C298.161 22.0952 296.888 22.7622 295.493 23.0654C294.34 23.308 293.188 23.308 292.096 23.0654C291.126 22.8835 290.216 22.5197 289.367 21.9739C289.852 22.3377 290.398 22.7016 290.944 22.9441C295.129 25.0059 300.224 24.2175 303.62 21.0037C304.772 19.9122 305.682 18.5781 306.228 17.1228C307.38 14.3334 307.32 11.2409 306.107 8.45148C305.379 6.69296 304.166 5.23763 302.71 4.08549C297.858 0.325893 290.823 1.17484 287.002 6.08657C284.212 9.66426 283.909 14.6366 286.213 18.5781C286.213 18.6388 286.274 18.6388 286.274 18.6994L286.456 18.8207Z" fill="url(#paint0_linear_1348_7960)"/>
    <path d="M260.718 16.9203L257.268 11.7393H259.408L261.81 15.4213L264.168 11.7393H266.337L262.887 16.9203L266.424 22.2177H264.27L261.81 18.4047L259.321 22.2177H257.167L260.718 16.9203Z" fill="black"/>
    <defs>
        <linearGradient id="paint0_linear_1348_7960" x1="284.768" y1="12.9769" x2="307.136" y2="12.9769" gradientUnits="userSpaceOnUse">
            <stop stop-color="#48777E" stop-opacity="0.9373"/>
            <stop offset="0.05449" stop-color="#4B7F88" stop-opacity="0.946"/>
            <stop offset="0.2018" stop-color="#4E95A0" stop-opacity="0.9655"/>
            <stop offset="0.3599" stop-color="#4CA5B3" stop-opacity="0.9808"/>
            <stop offset="0.5317" stop-color="#4AAFBF" stop-opacity="0.9916"/>
            <stop offset="0.7276" stop-color="#4CB3C4" stop-opacity="0.998"/>
            <stop offset="1" stop-color="#4EB4C5"/>
        </linearGradient>
    </defs>
</svg>
