<svg width="21" height="20" viewBox="0 0 21 20" fill="none" xmlns="http://www.w3.org/2000/svg">
<path fill-rule="evenodd" clip-rule="evenodd" d="M11.149 19.4343C10.7756 19.7614 10.2244 19.7614 9.85098 19.4343C8.1984 17.9867 3.82981 14.1149 1.95013 12.0095C0.746098 10.7373 0 8.97058 0 7.01755C0 3.14186 2.93813 0 6.5625 0C7.7582 0 8.87921 0.341954 9.84468 0.939399C10.2436 1.18628 10.7564 1.18628 11.1553 0.939398C12.1208 0.341954 13.2418 0 14.4375 0C18.0619 0 21 3.14186 21 7.01755C21 8.97059 20.2539 10.7373 19.0499 12.0095C17.1702 14.1149 12.8016 17.9867 11.149 19.4343Z" fill="#FF2A50"/>
</svg>
