<svg width="24" height="24" viewBox="0 0 24 24" fill="none" xmlns="http://www.w3.org/2000/svg">
<path fill-rule="evenodd" clip-rule="evenodd" d="M3.56604 12.877L3.58492 12.8978C4.84408 14.2861 7.2116 16.4686 9.32962 18.3557C9.80732 18.7814 10.2679 19.188 10.6942 19.5622C11.4416 20.2182 12.5584 20.2182 13.3058 19.5622C13.7321 19.188 14.1927 18.7814 14.6704 18.3557C16.7884 16.4686 19.1559 14.2861 20.4151 12.8978L20.434 12.877L20.4534 12.8567C21.4876 11.7811 22.125 10.2931 22.125 8.64474C22.125 5.37463 19.6066 2.72368 16.5 2.72368C15.2315 2.72368 14.066 3.16328 13.1261 3.90646V3.90646C12.4661 4.42832 11.5339 4.42832 10.8739 3.90646V3.90646C9.93398 3.16328 8.76846 2.72368 7.5 2.72368C4.3934 2.72368 1.875 5.37463 1.875 8.64474C1.875 10.2931 2.51241 11.7811 3.54659 12.8567L3.56604 12.877ZM13.287 22.1421C12.5457 22.7849 11.4543 22.7849 10.7131 22.1421C8.54143 20.259 4.19433 16.428 2.22872 14.2607C0.852683 12.8294 0 10.8419 0 8.64474C0 4.2846 3.35786 0.75 7.5 0.75C8.63112 0.75 9.70375 1.01358 10.6655 1.48557C11.4976 1.89391 12.5024 1.89391 13.3345 1.48557C14.2962 1.01358 15.3689 0.75 16.5 0.75C20.6421 0.75 24 4.2846 24 8.64474C24 10.8419 23.1473 12.8294 21.7713 14.2607C19.8057 16.428 15.4586 20.259 13.287 22.1421Z" fill="#6392AC"/>
</svg>
