<svg width="449" height="30" viewBox="0 0 449 30" fill="none" xmlns="http://www.w3.org/2000/svg">
<path d="M42.2761 24.7632C41.1237 24.8845 39.9107 25.0058 38.4551 24.8239C38.9403 18.5174 39.7287 12.4536 40.3353 6.14715C42.7006 6.02587 45.0054 6.02587 47.2494 6.02587C48.2199 8.63334 48.6444 11.2408 49.7968 13.6057C50.9491 11.2408 51.1918 8.63334 52.3441 6.08651C54.4669 5.84396 56.6503 5.96523 58.8944 6.02587C59.6222 12.3323 60.35 18.3962 61.0778 24.7632C58.8338 24.8845 56.7716 24.8845 54.5882 24.7632C54.1636 21.4888 53.7391 18.4568 53.3145 15.3642C51.8589 18.3962 51.3737 21.7313 50.1607 24.7632H47.1888C46.0971 21.6707 45.066 18.3962 43.9743 15.3036C43.0645 15.4855 42.2761 24.7632 42.2761 24.7632Z" fill="#191C26"/>
<path d="M114.269 11.8472C116.21 12.211 117.362 13.6663 118.939 14.2121C119.909 13.545 120.819 12.878 121.729 12.211C123.73 10.695 127.309 13.6663 128.461 15.1216C130.523 17.8504 130.402 21.61 130.038 24.8238C128.158 25.0058 126.278 24.8845 124.398 24.8238C124.034 23.3079 125.611 15.9706 121.486 15.6674C121.486 18.6993 121.486 21.7313 121.486 24.8845C119.546 24.9451 117.847 24.9451 116.21 24.8845C115.785 24.3994 115.906 23.9143 115.906 23.4898C115.906 22.0345 116.392 15.061 113.177 16.0312C113.177 18.8812 113.177 21.7919 113.177 24.8845C111.054 24.8845 109.235 25.0664 107.233 24.8845C107.233 22.0345 107.233 19.3057 107.233 16.4557C109.599 15.0004 111.843 13.1206 114.269 11.8472Z" fill="#191C26"/>
<path d="M243.516 22.0344C243.152 22.6408 242.606 22.8227 242.182 23.0653C241.09 23.611 239.938 24.0961 238.846 24.7025C237.815 25.2483 236.845 25.1876 235.813 24.8844C235.025 24.6419 234.237 24.3993 233.509 24.1568C232.356 23.7323 231.265 23.6717 230.234 24.5206C230.052 24.6419 229.809 24.7025 229.324 24.5812C229.263 19.9727 229.324 15.3035 229.324 10.5737C230.901 9.54284 232.296 8.33007 233.994 7.54176C236.845 6.20771 241.272 7.90559 242.424 10.5737C242.667 11.1801 242.788 11.8471 242.667 12.5141C242 13.3024 240.787 13.4237 240.059 14.3939C241.211 15.3642 242.728 15.9705 243.213 17.6078C243.577 19.1844 243.516 20.6397 243.516 22.0344ZM237.815 22.7014C238.361 20.2153 237.512 17.7897 234.964 17.6078C234.176 20.1546 235.389 22.5195 237.815 22.7014ZM237.876 12.5141C237.815 10.695 236.723 9.72476 234.782 9.72476C234.661 11.0588 234.6 12.3929 234.722 13.9088C235.935 13.545 236.905 13.1205 237.876 12.5141Z" fill="#191C26"/>
<path d="M168.065 25.127C167.702 26.0972 168.065 26.9462 167.58 27.7951C165.761 27.8557 163.82 27.8557 161.818 27.7345C161.818 22.4589 161.818 17.244 161.818 11.9077C163.699 11.7258 165.579 11.7865 167.459 11.9077C167.823 12.3322 167.52 12.878 167.944 13.2418C169.521 12.7567 170.977 11.8471 172.614 11.2407C174.494 12.2109 175.707 13.6663 176.132 15.728C176.557 17.7897 176.314 19.9121 176.314 22.1557C173.585 23.5504 171.28 25.6121 168.065 25.127ZM167.701 14.5759C167.52 16.3344 167.52 18.0323 167.641 19.6695C167.701 20.3972 167.883 21.0642 168.247 21.6706C168.672 22.4589 169.218 23.1259 170.37 23.1259C170.552 20.761 170.673 18.5174 169.946 16.3344C169.642 15.4248 169.036 14.6365 167.701 14.5759Z" fill="#191C26"/>
<path d="M203.728 11.9685C205.851 11.9079 207.731 11.7866 209.794 11.9685C209.794 15.7281 209.794 19.4271 209.794 23.2474C211.007 22.9442 211.795 22.2771 212.826 22.2165C212.947 22.2165 213.069 22.2771 213.311 22.3984C213.19 23.5505 213.069 24.7027 212.947 25.8548C212.826 25.9154 212.765 25.9155 212.765 25.9155C210.521 24.642 208.095 25.0059 205.73 24.9452C205.184 24.9452 204.638 25.0059 204.214 24.8846C203.668 24.5814 203.971 24.0356 203.607 23.7325C202.819 23.6112 202.212 24.2176 201.545 24.5208C200.575 25.0059 199.665 25.6123 198.573 25.0059C197.239 24.2782 195.965 23.4293 195.541 21.792C194.995 19.9122 194.873 14.3941 195.237 12.0898C196.996 11.4834 198.876 11.9685 200.575 11.9079C201.12 12.4537 200.999 12.9388 200.999 13.3632C200.999 15.3037 200.999 17.2441 201.06 19.1845C201.12 20.8824 201.848 21.7314 203.728 22.3378C203.728 18.8814 203.728 15.5462 203.728 11.9685Z" fill="#191C26"/>
<path d="M72.4803 12.0293C74.5425 11.8474 76.362 11.908 78.1815 11.908C78.5454 12.8176 78.6061 23.6719 78.2422 24.9454C76.4226 25.0666 74.6031 25.0666 72.9049 24.9454C72.4197 24.5815 72.4197 23.49 72.4197 23.49C72.1164 23.3687 70.9641 24.1571 70.2969 24.4603C69.3265 24.9454 68.4167 25.6124 67.325 25.0666C65.9301 24.339 64.5957 23.49 64.1712 21.8528C63.4434 18.6996 63.6253 15.5464 63.8073 12.1506C65.7481 11.6048 67.5676 11.908 69.3265 11.9687C69.751 12.4538 69.6297 12.9389 69.6297 13.3634C69.6297 15.3038 69.6298 17.2442 69.6904 19.1847C69.7511 20.9432 70.5395 22.0953 72.4197 22.5804C72.4803 19.0634 72.4803 15.4857 72.4803 12.0293Z" fill="#191C26"/>
<path d="M139.741 16.1526C138.589 13.4845 135.86 16.759 134.04 16.5164C133.919 15.243 133.98 14.0302 134.04 12.7568C135.011 11.7866 136.952 11.726 138.286 11.6653C139.984 11.544 141.804 11.6653 143.441 12.1504C144.897 12.5749 145.503 13.3026 145.685 14.7579C145.867 16.5771 145.928 18.4569 145.928 20.3367C145.928 21.6101 145.928 24.8846 145.685 24.8846C144.048 24.8846 141.986 25.0665 140.287 25.0665C139.802 24.5207 140.105 23.8537 139.802 23.4292C138.892 23.0654 137.133 24.2782 136.345 24.642C134.586 25.4303 134.101 25.3697 133.191 24.2175C131.857 22.5803 131.675 20.8824 132.706 19.6696C133.555 18.6388 134.768 17.9718 136.042 17.5473C136.952 17.2441 139.378 17.3047 139.741 16.1526ZM139.56 19.1239C138.347 19.0633 137.558 19.609 137.497 20.5792C137.437 21.5494 138.286 22.1558 139.62 22.0952C139.923 21.125 139.923 20.0335 139.56 19.1239Z" fill="#191C26"/>
<path d="M191.477 25.1272C190.082 25.1272 188.626 25.1272 187.11 25.1272C186.867 25.1272 186.564 25.1878 186.321 25.0059C185.958 24.5815 186.261 23.9144 185.958 23.49C185.533 23.2474 185.169 23.4293 184.805 23.6112C183.774 24.0964 182.743 24.5815 181.712 25.0059C180.742 25.4304 180.135 25.3091 179.468 24.5208C179.165 24.157 178.861 23.7325 178.619 23.2474C177.77 21.7314 178.073 20.2155 179.468 19.0633C181.045 17.7899 182.925 17.3048 184.805 16.8803C185.23 16.7591 185.654 16.8803 185.897 16.3952C185.654 15.1825 185.169 14.8186 184.077 15.2431C183.228 15.5463 182.44 15.9101 181.591 16.274C181.227 16.4559 180.802 16.5771 180.317 16.7591C180.135 15.3644 180.256 14.091 180.196 12.8782C180.924 12.0899 181.894 12.0899 182.743 11.9686C184.987 11.6654 187.231 11.5441 189.475 12.2112C191.052 12.6963 191.719 13.3633 191.841 15.0005C192.083 17.9718 192.083 21.0038 191.901 23.9751C191.901 24.2783 191.841 24.6421 191.477 25.1272ZM185.958 19.0633C184.563 19.0633 183.713 19.7304 183.774 20.7006C183.835 21.6102 184.745 22.2166 185.958 22.0346C186.079 21.1251 186.2 20.1548 185.958 19.0633Z" fill="#191C26"/>
<path d="M221.499 20.7004C222.47 21.428 223.622 21.7312 224.714 22.0344C224.714 22.5195 224.411 22.6408 224.107 22.8834C223.44 23.3685 222.712 23.7929 222.106 24.3387C221.075 25.1876 220.104 25.2483 218.891 24.7632C215.798 23.611 214.464 21.9738 214.403 19.0025C214.403 18.0323 214.403 17.062 214.403 16.0918C214.403 15.6674 214.403 15.2429 214.403 14.8791C215.192 13.9088 216.284 13.7269 217.193 13.3024C218.164 12.8173 219.195 12.4535 220.165 11.9684C221.196 11.4833 222.106 11.4226 223.137 12.0897C224.35 12.878 225.684 13.6056 226.897 14.3939C227.261 14.6365 227.686 14.8184 227.868 15.2429C227.807 15.7886 227.322 15.9706 226.958 16.2737C225.381 17.4259 223.804 18.578 222.288 19.7302C221.985 19.9121 221.56 20.094 221.499 20.7004ZM220.104 15.3642C219.983 16.3344 219.862 17.1833 220.165 18.1535C221.075 17.9716 221.621 17.4865 222.288 16.8195C221.681 16.1525 221.136 15.5461 220.104 15.3642Z" fill="#191C26"/>
<path d="M156.481 13.9695C156.481 17.5472 156.481 21.1855 156.481 24.8239L150.598 24.9451C150.598 21.3068 150.598 17.4866 150.598 13.9695L147.565 13.9089C147.565 13.9089 147.565 12.5748 147.626 11.9078C151.508 11.8472 155.571 11.9078 159.514 11.9078L159.574 13.9695C159.392 13.9695 156.481 13.9695 156.481 13.9695Z" fill="#191C26"/>
<path d="M96.4378 16.8803C96.1952 14.3941 94.9216 12.5143 92.7381 11.4834C91.0399 12.0291 89.5843 12.9994 88.0074 13.4845C87.5828 13.06 87.8861 12.4536 87.4615 11.9685C85.7026 11.8472 83.8831 11.8472 82.1242 11.9685C81.6997 13.3632 82.1242 27.8559 82.1242 27.8559C84.0044 27.9165 86.3091 27.8559 88.25 27.7346V25.1271C91.4645 25.6122 93.8905 23.4899 96.4985 22.3377C96.4985 20.3973 96.6198 18.6388 96.4378 16.8803ZM90.494 22.7016C90.494 22.8228 90.4334 23.0048 90.1908 23.126C89.2204 23.0048 88.6139 22.2771 88.25 21.4282C87.3402 19.2452 87.7041 16.9409 87.7648 14.6973C88.6745 14.4547 89.0991 14.9398 89.5236 15.3643C90.0695 15.9707 90.3727 16.759 90.4334 17.6079C90.5547 19.3058 90.5547 21.0037 90.494 22.7016Z" fill="#191C26"/>
<path d="M13.6483 28.2199C13.527 28.2199 13.4663 28.2199 13.345 28.2199C5.82431 28.0986 -0.119478 22.2773 0.00182404 15.3645C0.0624749 11.9687 1.57875 8.87613 4.18673 6.51122C6.79472 4.20695 10.2518 2.93354 13.8909 3.05481C21.4116 3.17609 27.3554 8.99741 27.2341 15.9102C27.1734 19.306 25.6571 22.3986 23.0491 24.7635C20.4412 27.0071 17.166 28.2199 13.6483 28.2199ZM0.42638 15.3645H0.911587C0.790285 21.7922 6.37016 27.189 13.345 27.3103C16.7415 27.3709 19.956 26.2188 22.382 24.0358C24.808 21.8528 26.203 19.0028 26.2636 15.8496C26.3849 9.42187 20.8051 4.02503 13.8302 3.90375C10.4338 3.84311 7.21928 4.99526 4.79324 7.17825C2.36721 9.36124 0.972238 12.2113 0.911587 15.3645H0.42638Z" fill="#47B3CC"/>
<path d="M26.5076 15.4253H0.427734V16.0317H26.5076V15.4253Z" fill="#47B3CC"/>
<path d="M13.7696 3.66113H13.1631V28.0379H13.7696V3.66113Z" fill="#47B3CC"/>
<path d="M22.8667 23.6113C21.8356 21.9134 17.1655 20.7006 13.4051 20.7006C8.85631 20.64 5.27791 21.307 2.97318 22.5198L2.66992 21.974C5.0353 20.7006 8.735 20.0942 13.4051 20.0942C17.2868 20.0942 22.2601 21.307 23.4125 23.3081L22.8667 23.6113Z" fill="#47B3CC"/>
<path d="M13.3445 10.8773C8.91696 10.8773 3.51903 9.60389 2.66992 8.87622L3.09448 8.45175C3.64034 8.9975 8.79566 10.3316 13.4658 10.3316C17.6507 10.3316 22.6241 8.33048 22.9273 7.4209L23.5338 7.60282C23.1093 9.05815 17.3474 10.9379 13.5264 10.9379C13.4051 10.8773 13.4051 10.8773 13.3445 10.8773Z" fill="#47B3CC"/>
<path d="M13.2233 28.0379C13.102 27.9772 12.9807 27.9166 12.7987 27.856C10.9792 27.0676 5.45996 24.7634 5.45996 15.6069C5.45996 6.32921 12.6774 3.60047 13.5265 3.35791L13.7085 3.9643C12.92 4.20685 6.06647 6.81432 6.06647 15.6676C6.06647 24.3995 11.1005 26.5825 13.0413 27.3708C13.2233 27.4315 13.3446 27.4921 13.4659 27.5528L13.2233 28.0379Z" fill="#47B3CC"/>
<path d="M13.6484 2.99414V3.53989C17.0449 4.57075 19.7135 8.02715 20.2594 10.2708C20.4413 11.7868 20.32 14.3942 19.9561 15.5464H21.4117C21.4117 16.2134 21.3511 16.8804 21.2298 17.5474C23.11 17.5474 23.5952 16.5166 23.5952 16.5166C23.5952 18.1538 22.2002 19.3666 20.8659 19.306C19.7742 22.9443 17.0449 25.8549 13.6484 27.3103V28.0379C21.0478 28.0379 26.9916 22.4592 26.9916 15.5464C26.9916 8.63354 20.9872 2.99414 13.6484 2.99414Z" fill="#47B3CC"/>
<path fill-rule="evenodd" clip-rule="evenodd" d="M337.221 6.69315V24.5816H333.643V12.09L329.033 24.5816H325.879L321.27 12.1506V24.5816H317.631V6.69315H321.998L327.456 20.1549L332.794 6.69315H337.221ZM353.839 16.9411C353.839 17.3656 353.779 17.79 353.718 18.1539H343.347C343.286 19.1847 343.65 20.2156 344.378 20.9432C344.984 21.5496 345.834 21.8528 346.743 21.8528C347.471 21.8528 348.199 21.6709 348.805 21.2464C349.351 20.822 349.715 20.2762 349.897 19.6092H353.718C353.536 20.5794 353.112 21.489 352.505 22.2773C351.899 23.0656 351.049 23.7326 350.14 24.0965C347.896 25.0667 345.409 24.9454 343.226 23.8539C342.134 23.2475 341.285 22.3986 340.739 21.3071C339.526 18.8815 339.526 16.0315 340.739 13.5453C341.285 12.4538 342.194 11.6049 343.226 10.9985C344.378 10.3921 345.652 10.0889 346.925 10.1496C348.199 10.1496 349.473 10.3921 350.625 10.9985C351.656 11.5442 352.505 12.3932 353.051 13.3634C353.536 14.5155 353.839 15.7283 353.839 16.9411ZM350.2 16.5773C350.322 15.607 349.958 14.6368 349.291 13.9092C348.623 13.3028 347.774 12.9996 346.865 12.9996C345.955 12.9996 345.106 13.3028 344.378 13.9092C343.65 14.5762 343.286 15.5464 343.286 16.5773H350.2ZM365.606 21.7922H371.671V24.5816H361.967V6.51123H365.606V21.7922ZM379.373 10.2102C380.465 10.1496 381.557 10.4527 382.467 11.0591C383.316 11.6049 383.922 12.3932 384.286 13.3634V10.3921H387.865V24.5816H384.286V21.6103C383.922 22.5199 383.316 23.3688 382.467 23.9145C381.557 24.5209 380.465 24.8241 379.373 24.7635C378.221 24.7635 377.129 24.4603 376.159 23.9145C375.189 23.3082 374.4 22.4592 373.915 21.3677C372.823 18.8815 372.823 16.0921 373.915 13.606C374.4 12.5751 375.189 11.6655 376.159 11.0591C377.129 10.4527 378.221 10.1496 379.373 10.2102ZM380.465 13.3634C379.434 13.3028 378.464 13.7272 377.736 14.4549C377.008 15.3038 376.644 16.3953 376.705 17.4868C376.644 18.5783 377.008 19.6698 377.736 20.5188C379.252 21.9741 381.678 21.9741 383.134 20.5188C384.529 18.7603 384.529 16.2741 383.134 14.5155C382.467 13.7272 381.496 13.3028 380.465 13.3634ZM409.214 10.1496C410.73 10.0889 412.246 10.6347 413.277 11.7262C414.248 12.8177 414.794 14.3336 414.794 16.2741V24.5209H411.215V16.6985C411.276 15.789 410.973 14.8794 410.366 14.1517C409.76 13.5453 408.91 13.2421 408.061 13.2421C407.152 13.1815 406.302 13.5453 405.635 14.2123C404.968 15.0007 404.665 15.9709 404.725 17.0017V24.5209H401.147V16.6985C401.208 15.789 400.904 14.8794 400.298 14.1517C399.691 13.5453 398.842 13.2421 397.993 13.2421C397.083 13.1815 396.234 13.5453 395.567 14.2123C394.9 15.0007 394.597 15.9709 394.657 17.0017V24.5209H391.018V10.3315H394.657V12.9996C395.021 12.09 395.628 11.3623 396.416 10.8772C397.265 10.3921 398.236 10.0889 399.267 10.1496C400.298 10.1496 401.329 10.3921 402.239 10.9985C403.088 11.5442 403.755 12.3932 404.119 13.3634C405.089 11.3623 407.03 10.1496 409.214 10.1496ZM424.498 10.2102C425.771 10.2102 427.045 10.5134 428.197 11.0591C429.289 11.6049 430.199 12.5145 430.805 13.606C432.079 16.0315 432.079 18.9422 430.805 21.3677C430.199 22.4592 429.289 23.3082 428.197 23.9145C425.832 25.0667 423.103 25.0667 420.737 23.9145C419.646 23.3082 418.736 22.4592 418.129 21.3677C416.856 18.9422 416.856 16.0315 418.129 13.606C418.736 12.5145 419.646 11.6655 420.737 11.0591C421.95 10.4527 423.224 10.1496 424.498 10.2102ZM424.498 13.3028C423.527 13.3028 422.617 13.6666 421.95 14.3943C420.555 16.2134 420.555 18.7603 421.95 20.5794C423.345 21.9741 425.65 21.9741 427.045 20.5794C428.44 18.7603 428.44 16.2134 427.045 14.3943C426.378 13.6666 425.468 13.3028 424.498 13.3028ZM437.962 13.0602C438.447 12.1506 439.175 11.423 440.085 10.9379C440.995 10.3921 441.965 10.1496 442.996 10.1496V14.0304H441.965C439.296 14.0304 438.023 15.2432 438.023 17.7294V24.5816H434.384V10.3921H438.023L437.962 13.0602ZM448.576 10.3921V24.5816H444.937V10.3921H448.576Z" fill="#191C26"/>
<path fill-rule="evenodd" clip-rule="evenodd" d="M444.572 6.26856C444.572 5.72281 444.754 5.17707 445.179 4.87387C446.149 4.14621 447.484 4.14621 448.393 4.87387C448.818 5.23771 449 5.78345 449 6.26856C449 6.81431 448.818 7.29942 448.393 7.66325C447.423 8.39091 446.089 8.39091 445.179 7.66325C444.754 7.36006 444.572 6.81431 444.572 6.26856Z" fill="#47B3CC"/>
<path fill-rule="evenodd" clip-rule="evenodd" d="M289.427 22.0346L289.306 21.974C288.396 21.3676 287.608 20.6399 287.001 19.791L286.395 18.8814L286.334 18.8207C286.334 18.7601 286.273 18.7601 286.273 18.6995C283.18 13.3633 284.939 6.51108 290.276 3.41851C294.219 1.11424 299.131 1.41743 302.771 4.20681C304.287 5.35894 305.439 6.87491 306.167 8.57279C307.38 11.3015 307.38 14.4548 306.288 17.2441C305.682 18.6995 304.772 20.0335 303.68 21.125C300.284 24.3389 295.25 25.1272 291.004 23.0655C290.458 22.7623 289.913 22.3984 289.427 22.0346ZM292.945 0.0227396C291.853 0.0833784 290.762 0.265291 289.731 0.568484C287.486 1.17487 285.424 2.32701 283.726 3.90361C283.666 3.96425 283.544 4.02489 283.484 4.14617C283.423 4.20681 283.302 4.26745 283.241 4.38873C283.059 4.57064 282.938 4.69192 282.756 4.87384C282.452 5.17703 282.149 5.54086 281.907 5.90469C279.723 8.75471 278.631 12.2718 278.874 15.9101C278.935 17.0016 279.117 18.0324 279.42 19.1239C281.664 27.0676 289.913 31.6762 297.918 29.4325C298.828 29.19 299.738 28.8261 300.587 28.4017C301.376 27.9772 302.164 27.5527 302.892 26.9463C305.075 25.3091 306.713 23.0655 307.744 20.5793C309.867 15.2431 308.775 9.17919 304.893 4.99511C304.833 4.93447 304.772 4.8132 304.651 4.75256L303.923 4.02489C302.589 2.81212 301.012 1.8419 299.313 1.11423C297.312 0.265292 295.128 -0.0985378 292.945 0.0227396Z" fill="#191C26"/>
<path fill-rule="evenodd" clip-rule="evenodd" d="M286.456 18.8205C286.274 18.3961 286.152 18.1535 285.91 17.4865C284.818 14.0301 286.092 10.2705 289.003 8.20875C291.611 6.38958 294.947 6.20766 297.737 7.66299C298.525 8.08746 299.253 8.63322 299.859 9.30024L300.284 9.78535C300.405 9.96726 300.527 10.1492 300.648 10.3311C300.89 10.6949 301.133 11.1194 301.315 11.5439C302.589 14.3939 302.164 17.7897 300.163 20.2152C299.859 20.579 299.556 20.8822 299.253 21.1854C298.161 22.095 296.888 22.762 295.493 23.0652C294.34 23.3078 293.188 23.3078 292.096 23.0652C291.126 22.8833 290.216 22.5195 289.367 21.9737C289.852 22.3376 290.398 22.7014 290.944 22.944C295.129 25.0057 300.223 24.2174 303.62 21.0035C304.772 19.912 305.682 18.578 306.228 17.1226C307.38 14.3333 307.319 11.2407 306.106 8.4513C305.379 6.69277 304.166 5.23745 302.71 4.08531C297.858 0.32571 290.822 1.17465 287.001 6.08639C284.212 9.66408 283.908 14.6364 286.213 18.578C286.213 18.6386 286.274 18.6386 286.274 18.6992L286.456 18.8205Z" fill="url(#paint0_linear_1473:10407)"/>
<path d="M260.718 16.9202L257.268 11.7393H259.408L261.809 15.4212L264.168 11.7393H266.336L262.887 16.9202L266.424 22.2176H264.269L261.809 18.4047L259.32 22.2176H257.166L260.718 16.9202Z" fill="black"/>
<defs>
<linearGradient id="paint0_linear_1473:10407" x1="284.768" y1="12.9767" x2="307.136" y2="12.9767" gradientUnits="userSpaceOnUse">
<stop stop-color="#48777E" stop-opacity="0.9373"/>
<stop offset="0.05449" stop-color="#4B7F88" stop-opacity="0.946"/>
<stop offset="0.2018" stop-color="#4E95A0" stop-opacity="0.9655"/>
<stop offset="0.3599" stop-color="#4CA5B3" stop-opacity="0.9808"/>
<stop offset="0.5317" stop-color="#4AAFBF" stop-opacity="0.9916"/>
<stop offset="0.7276" stop-color="#4CB3C4" stop-opacity="0.998"/>
<stop offset="1" stop-color="#4EB4C5"/>
</linearGradient>
</defs>
</svg>
