<svg width="21" height="20" viewBox="0 0 21 20" fill="none" xmlns="http://www.w3.org/2000/svg">
<path fill-rule="evenodd" clip-rule="evenodd" d="M3.12029 10.7795L3.13681 10.798C4.23857 12.0321 6.31015 13.9721 8.16342 15.6495C8.76916 16.1978 9.34336 16.7107 9.84056 17.1516C10.217 17.4854 10.783 17.4854 11.1594 17.1516C11.6566 16.7107 12.2308 16.1978 12.8366 15.6495C14.6898 13.9721 16.7614 12.0321 17.8632 10.798L17.8797 10.7795L17.8967 10.7616C18.8016 9.8054 19.3594 8.48274 19.3594 7.01755C19.3594 4.11078 17.1558 1.75439 14.4375 1.75439C13.3276 1.75439 12.3078 2.14514 11.4853 2.80574L11.1262 3.09418C10.7604 3.38799 10.2396 3.38798 9.87378 3.09418L9.51468 2.80574C8.69223 2.14514 7.6724 1.75439 6.5625 1.75439C3.84422 1.75439 1.64062 4.11078 1.64062 7.01755C1.64062 8.48274 2.19836 9.8054 3.10327 10.7615L3.12029 10.7795ZM11.149 19.4343C10.7756 19.7614 10.2244 19.7614 9.85098 19.4343C8.1984 17.9867 3.82981 14.1149 1.95013 12.0095C0.746098 10.7373 0 8.97058 0 7.01755C0 3.14186 2.93813 0 6.5625 0C7.7582 0 8.87921 0.341954 9.84468 0.939399C10.2436 1.18628 10.7564 1.18628 11.1553 0.939398C12.1208 0.341954 13.2418 0 14.4375 0C18.0619 0 21 3.14186 21 7.01755C21 8.97059 20.2539 10.7373 19.0499 12.0095C17.1702 14.1149 12.8016 17.9867 11.149 19.4343Z" fill="#020D2B"/>
</svg>
