<svg width="16" height="16" viewBox="0 0 16 16" fill="none" xmlns="http://www.w3.org/2000/svg">
<path fill-rule="evenodd" clip-rule="evenodd" d="M8.66704 15.3885C8.28851 15.7376 7.7115 15.7376 7.33297 15.3885C5.96525 14.1271 2.85672 11.2199 1.48582 9.60759C0.568456 8.58982 0 7.17647 0 5.61404C0 2.51349 2.23858 0 5 0C5.83442 0 6.6211 0.229498 7.3127 0.635342C7.73288 0.881912 8.26712 0.881912 8.6873 0.635342C9.3789 0.229498 10.1656 0 11 0C13.7614 0 16 2.51349 16 5.61404C16 7.17647 15.4315 8.58982 14.5142 9.60759C13.1433 11.2199 10.0348 14.1271 8.66704 15.3885Z" fill="#FF2A50"/>
</svg>
