<svg width="24" height="22" viewBox="0 0 24 22" fill="none" xmlns="http://www.w3.org/2000/svg">
<path fill-rule="evenodd" clip-rule="evenodd" d="M12.9656 21.6396C12.4089 22.1201 11.5911 22.1201 11.0344 21.6396C9.00131 19.8849 4.29684 15.7686 2.22872 13.4916C0.852683 12.0623 0 10.0776 0 7.88357C0 3.52959 3.35786 0 7.5 0C8.77035 0 9.96694 0.33199 11.0155 0.917933C11.6221 1.25691 12.3779 1.25691 12.9845 0.917933C14.0331 0.33199 15.2296 0 16.5 0C20.6421 0 24 3.52959 24 7.88357C24 10.0776 23.1473 12.0623 21.7713 13.4916C19.7032 15.7686 14.9987 19.8849 12.9656 21.6396Z" fill="#FF2A50"/>
</svg>
