<svg width="32" height="32" viewBox="0 0 32 32" fill="none" xmlns="http://www.w3.org/2000/svg">
<path fill-rule="evenodd" clip-rule="evenodd" d="M17.2875 29.8937C16.5452 30.5353 15.4548 30.5353 14.7125 29.8937C12.0017 27.5508 5.72912 22.0546 2.97163 19.0142C1.13691 17.1059 0 14.4559 0 11.5263C0 5.71279 4.47715 1 10 1C11.6938 1 13.2893 1.44328 14.6874 2.22564C15.4962 2.67826 16.5038 2.67826 17.3126 2.22565C18.7107 1.44328 20.3062 1 22 1C27.5228 1 32 5.71279 32 11.5263C32 14.4559 30.8631 17.1059 29.0284 19.0142C26.2709 22.0546 19.9983 27.5508 17.2875 29.8937Z" fill="#FF758E"/>
</svg>
