<svg width="28" height="28" viewBox="0 0 28 28" fill="none" xmlns="http://www.w3.org/2000/svg">
<path fill-rule="evenodd" clip-rule="evenodd" d="M7.8472 7C5.50704 7 3.66668 9.0001 3.86101 11.3322L4.94435 24.3322C5.11711 26.4053 6.85018 28 8.93053 28H19.0695C21.1498 28 22.8829 26.4054 23.0557 24.3322L24.139 11.3322C24.3333 9.0001 22.493 7 20.1528 7H7.8472ZM8.05097 9.1875C6.88089 9.1875 5.96071 10.1876 6.05788 11.3536L7.10996 23.9786C7.19635 25.0152 8.06288 25.8125 9.10306 25.8125H18.8969C19.9371 25.8125 20.8037 25.0152 20.89 23.9786L21.9421 11.3536C22.0393 10.1876 21.1191 9.1875 19.949 9.1875H8.05097Z" fill="#020D2B"/>
<path fill-rule="evenodd" clip-rule="evenodd" d="M14 2.84591C11.7046 2.84591 9.84375 4.70855 9.84375 7.00625H7.65625C7.65625 3.49924 10.4964 0.65625 14 0.65625C17.5036 0.65625 20.3438 3.49924 20.3438 7.00625H18.1562C18.1562 4.70855 16.2954 2.84591 14 2.84591Z" fill="#020D2B"/>
</svg>
