<svg width="16" height="16" viewBox="0 0 16 16" fill="none" xmlns="http://www.w3.org/2000/svg">
<path d="M4.5 0.5L7.5 1.5L11.5 0.5L15 3L15.5 7L10 13.5L7.5 14.5L1 7.5V3L4.5 0.5Z" fill="#F2FEFF"/>
<path fill-rule="evenodd" clip-rule="evenodd" d="M2.37736 8.62362L2.38995 8.63843C3.22939 9.6257 4.80773 11.1777 6.21975 12.5196C6.61194 12.8924 6.98677 13.2447 7.32301 13.5585C7.70439 13.9145 8.29562 13.9145 8.677 13.5585C9.01323 13.2447 9.38807 12.8924 9.78025 12.5196C11.1923 11.1777 12.7706 9.6257 13.61 8.63843L13.6226 8.62363L13.6356 8.60924C14.3251 7.84432 14.75 6.78619 14.75 5.61404C14.75 3.28863 13.0711 1.40351 11 1.40351C10.1544 1.40351 9.37735 1.71611 8.75072 2.2446L8.6447 2.33401C8.27228 2.6481 7.72772 2.6481 7.3553 2.33401L7.24928 2.2446C6.62265 1.71611 5.84564 1.40351 5 1.40351C2.92893 1.40351 1.25 3.28863 1.25 5.61404C1.25 6.78619 1.67494 7.84432 2.3644 8.60924L2.37736 8.62362ZM8.66704 15.3885C8.28851 15.7376 7.7115 15.7376 7.33297 15.3885C5.96525 14.1271 2.85672 11.2199 1.48582 9.60759C0.568456 8.58982 0 7.17647 0 5.61404C0 2.51349 2.23858 0 5 0C5.83442 0 6.6211 0.229498 7.3127 0.635342C7.73288 0.881912 8.26712 0.881912 8.6873 0.635342C9.3789 0.229498 10.1656 0 11 0C13.7614 0 16 2.51349 16 5.61404C16 7.17647 15.4315 8.58982 14.5142 9.60759C13.1433 11.2199 10.0348 14.1271 8.66704 15.3885Z" fill="#020D2B"/>
</svg>
