<svg width="274" height="60" viewBox="0 0 274 60" fill="none" xmlns="http://www.w3.org/2000/svg">
    <path fill-rule="evenodd" clip-rule="evenodd" d="M93.0921 10.599V38.934H87.3701V19.1644L80.0547 38.934H75.0685L67.7528 19.2454V38.934H61.9901V10.599H68.9789L77.6433 31.9109L86.1441 10.599H93.0921ZM119.616 26.8368C119.608 27.4912 119.539 28.1433 119.412 28.7853H102.819C102.756 30.4165 103.343 32.0065 104.454 33.21C105.468 34.1599 106.82 34.6709 108.214 34.631C109.401 34.675 110.571 34.333 111.545 33.6567C112.423 33.0188 113.028 32.0772 113.241 31.0179H119.33C119.044 32.5589 118.385 34.0078 117.409 35.2399C116.405 36.503 115.108 37.5058 113.629 38.1627C111.881 38.9131 109.987 39.2712 108.083 39.2117C106.179 39.1519 104.312 38.6758 102.614 37.8174C100.915 36.9012 99.5233 35.5113 98.6094 33.8189C97.6682 31.9072 97.1789 29.8072 97.1789 27.679C97.1789 25.5509 97.6682 23.4509 98.6094 21.5392C99.5154 19.841 100.909 18.4491 102.614 17.5406C104.429 16.597 106.452 16.1222 108.5 16.1603C110.542 16.1141 112.561 16.5894 114.365 17.5406C115.994 18.4157 117.34 19.7317 118.247 21.336C119.179 23.0197 119.651 24.9159 119.616 26.8368ZM113.813 26.2684C113.907 25.5077 113.825 24.7359 113.573 24.0114C113.322 23.287 112.908 22.6289 112.362 22.0872C111.307 21.1374 109.923 20.6284 108.5 20.6663C107.057 20.626 105.654 21.1343 104.576 22.0872C104.017 22.6318 103.573 23.2827 103.271 24.0008C102.969 24.719 102.815 25.4901 102.819 26.2684H113.813ZM138.376 34.5497H148.062V38.934H132.613V10.2741H138.376V34.5497ZM160.364 16.1603C162.096 16.1117 163.804 16.5782 165.268 17.4999C166.604 18.36 167.622 19.628 168.17 21.113V16.4446H173.891V38.934H168.17V34.2248C167.619 35.7135 166.602 36.9869 165.268 37.8581C163.809 38.7925 162.099 39.2665 160.364 39.2181C158.551 39.2437 156.768 38.7656 155.214 37.8379C153.654 36.8806 152.411 35.4904 151.638 33.8394C150.789 31.8987 150.351 29.8053 150.351 27.6892C150.351 25.5732 150.789 23.4799 151.638 21.5392C152.411 19.888 153.654 18.4979 155.214 17.5406C156.768 16.6127 158.551 16.1346 160.364 16.1603ZM162.162 21.1533C161.356 21.1196 160.552 21.2578 159.805 21.559C159.058 21.8601 158.384 22.3171 157.83 22.8989C156.681 24.2253 156.095 25.9426 156.195 27.6892C156.092 29.4302 156.679 31.1419 157.83 32.459C158.992 33.5727 160.545 34.1919 162.16 34.1843C163.775 34.1768 165.322 33.5431 166.474 32.4184C167.571 31.0754 168.17 29.3986 168.17 27.6689C168.17 25.9392 167.571 24.2623 166.474 22.9194C165.921 22.3397 165.251 21.8826 164.508 21.5785C163.765 21.2741 162.965 21.1293 162.162 21.1533ZM207.935 16.1197C209.141 16.0584 210.346 16.2529 211.471 16.6904C212.594 17.1278 213.612 17.7982 214.455 18.6568C216.048 20.3484 216.846 22.7503 216.846 25.8625V38.934H211.123V26.5119C211.221 25.0583 210.745 23.6245 209.795 22.5134C209.319 22.0366 208.748 21.6652 208.117 21.4237C207.486 21.1823 206.812 21.0763 206.137 21.113C205.427 21.0794 204.717 21.1961 204.054 21.455C203.392 21.7138 202.793 22.1092 202.296 22.6148C201.265 23.8368 200.752 25.4088 200.865 26.999V38.934H195.144V26.5119C195.24 25.0583 194.764 23.6245 193.815 22.5134C193.34 22.0366 192.768 21.6652 192.138 21.4237C191.507 21.1823 190.832 21.0763 190.157 21.113C189.447 21.0794 188.737 21.1961 188.075 21.455C187.412 21.7138 186.813 22.1092 186.316 22.6148C185.285 23.8368 184.772 25.4088 184.885 26.999V38.934H179.123V16.4446H184.885V20.7068C185.438 19.3013 186.435 18.1119 187.726 17.3172C189.086 16.5008 190.653 16.0855 192.242 16.1197C193.923 16.0797 195.579 16.5314 197.003 17.4189C198.382 18.3215 199.446 19.6261 200.048 21.1533C200.726 19.6425 201.834 18.3612 203.235 17.467C204.636 16.5727 206.27 16.1045 207.935 16.1197ZM232.376 16.1603C234.443 16.1272 236.485 16.6014 238.322 17.5406C240.066 18.4469 241.506 19.8358 242.47 21.5392C243.463 23.4354 243.983 25.5414 243.983 27.679C243.983 29.8167 243.463 31.9227 242.47 33.8189C241.498 35.5163 240.06 36.9033 238.322 37.8174C236.477 38.7383 234.441 39.2181 232.376 39.2181C230.311 39.2181 228.275 38.7383 226.43 37.8174C224.692 36.9033 223.254 35.5163 222.281 33.8189C221.288 31.9227 220.769 29.8167 220.769 27.679C220.769 25.5414 221.288 23.4354 222.281 21.5392C223.246 19.8357 224.686 18.4468 226.43 17.5406C228.267 16.6014 230.309 16.1272 232.376 16.1603ZM232.376 21.113C231.615 21.0989 230.859 21.2412 230.156 21.5313C229.452 21.8212 228.817 22.2521 228.29 22.7975C227.201 24.1999 226.614 25.9196 226.614 27.6892C226.614 29.4586 227.201 31.1785 228.29 32.5808C228.826 33.1148 229.463 33.5386 230.164 33.8276C230.866 34.1168 231.617 34.2656 232.376 34.2656C233.135 34.2656 233.886 34.1168 234.588 33.8276C235.289 33.5386 235.926 33.1148 236.462 32.5808C237.55 31.1785 238.138 29.4586 238.138 27.6892C238.138 25.9196 237.55 24.1999 236.462 22.7975C235.935 22.2523 235.299 21.8212 234.596 21.5313C233.892 21.2414 233.137 21.0989 232.376 21.113ZM253.833 20.7476C254.64 19.3515 255.792 18.1844 257.183 17.358C258.592 16.5272 260.206 16.0987 261.842 16.1197V22.2494H260.166C255.943 22.2494 253.833 24.198 253.833 28.0951V38.934H248.069V16.4446H253.833V20.7476ZM270.792 16.4446V38.934H265.03V16.4446H270.792Z" fill="#020D2B"/>
    <path fill-rule="evenodd" clip-rule="evenodd" d="M264.377 9.98944C264.364 9.56537 264.445 9.14361 264.615 8.75419C264.784 8.36477 265.037 8.01726 265.357 7.73642C266.094 7.17054 267 6.86354 267.931 6.86354C268.864 6.86354 269.77 7.17054 270.507 7.73642C270.828 8.01726 271.08 8.36477 271.25 8.75419C271.419 9.14361 271.5 9.56537 271.488 9.98944C271.498 10.4071 271.415 10.822 271.246 11.2043C271.076 11.5867 270.823 11.9273 270.507 12.2017C269.77 12.7676 268.864 13.0745 267.931 13.0745C267 13.0745 266.094 12.7676 265.357 12.2017C265.041 11.9273 264.788 11.5867 264.619 11.2043C264.449 10.822 264.366 10.4071 264.377 9.98944Z" fill="#12C9E5"/>
    <path fill-rule="evenodd" clip-rule="evenodd" d="M16.8805 34.9179L16.7041 34.7811C15.271 33.8673 14.03 32.6859 13.0496 31.3028L12.1084 29.8245L11.9788 29.6809C11.9426 29.6277 11.9099 29.5721 11.8811 29.5146C9.79294 25.9617 9.01443 21.7979 9.67907 17.7374C10.3437 13.6767 12.4101 9.9723 15.5238 7.25947C18.6375 4.54662 22.6045 2.99442 26.7442 2.86904C30.8842 2.74369 34.939 4.05299 38.2134 6.57239C40.5908 8.40131 42.4657 10.7961 43.6649 13.5352C44.6056 15.6979 45.1043 18.0248 45.1311 20.3805C45.158 22.7362 44.7132 25.074 43.8221 27.2571C42.8598 29.5708 41.4287 31.6634 39.618 33.4044C36.9745 35.906 33.6231 37.5434 30.0145 38.0962C26.406 38.6491 22.7137 38.0906 19.4343 36.4963C18.5281 36.0633 17.6719 35.534 16.8805 34.9179ZM22.5171 0.0555282C20.7815 0.154904 19.0612 0.435668 17.3848 0.893172C13.8241 1.89879 10.545 3.70693 7.80272 6.17689C7.66783 6.29813 7.55811 6.4156 7.42319 6.53397C7.28287 6.65707 7.17967 6.7653 7.04581 6.89792C6.77436 7.16643 6.5863 7.38373 6.29093 7.6743C5.80956 8.18339 5.35721 8.7188 4.93594 9.278C1.44272 13.7955 -0.291966 19.4134 0.0506044 25.0996C0.151886 26.8104 0.434683 28.5059 0.8943 30.158C2.61506 36.2108 6.68585 41.3368 12.2113 44.4086C17.7368 47.4804 24.2644 48.2464 30.3585 46.5382C31.8416 46.1153 33.2807 45.5532 34.6566 44.8597C35.9499 44.227 37.1762 43.4675 38.3172 42.5923C41.7714 39.9804 44.4467 36.4862 46.0574 32.4821C47.7122 28.3531 48.1649 23.8454 47.364 19.4731C46.5633 15.1009 44.5413 11.0403 41.5287 7.75476C41.4076 7.62214 41.2872 7.5098 41.1687 7.3778L40.0225 6.25213C37.8765 4.3034 35.395 2.75426 32.6965 1.67882C29.4635 0.405151 25.9889 -0.148957 22.5171 0.0555282Z" fill="#020D2B"/>
    <path fill-rule="evenodd" clip-rule="evenodd" d="M12.1073 29.8227C11.8413 29.1188 11.5793 28.7791 11.2393 27.7264C10.3875 25.0641 10.408 22.2019 11.2978 19.5518C12.1876 16.9018 13.9008 14.6004 16.191 12.9788C18.2091 11.5696 20.5805 10.7428 23.0427 10.5899C25.5048 10.4369 27.9614 10.9639 30.1405 12.1124C31.4175 12.7884 32.5707 13.6731 33.5518 14.7294L34.2424 15.5178C34.4733 15.8104 34.6655 16.0692 34.8706 16.3689C35.287 16.979 35.6491 17.6241 35.9526 18.2968C36.96 20.5336 37.3225 23.0042 36.9997 25.4334C36.677 27.8628 35.6816 30.1554 34.1247 32.0559C33.6757 32.5901 33.192 33.0944 32.6766 33.5659C30.9476 35.0466 28.8799 36.0846 26.6539 36.5892C24.8638 36.9666 23.015 36.9761 21.221 36.6176C19.6866 36.3008 18.2181 35.7253 16.8794 34.9161C17.6708 35.5322 18.527 36.0615 19.4332 36.4945C22.7125 38.0888 26.405 38.6472 30.0135 38.0944C33.6219 37.5416 36.9735 35.9042 39.6168 33.4026C41.4277 31.6616 42.8586 29.569 43.8209 27.2553C44.712 25.0719 45.157 22.7344 45.1299 20.3787C45.103 18.0229 44.6046 15.696 43.6637 13.5334C42.4647 10.7942 40.5898 8.39946 38.2121 6.57054C34.938 4.05114 30.883 2.74184 26.7432 2.86721C22.6032 2.99257 18.6364 4.54477 15.5227 7.25762C12.409 9.97045 10.3426 13.6749 9.67796 17.7355C9.01332 21.7961 9.79184 25.9599 11.88 29.5128C11.9088 29.5703 11.9415 29.6259 11.9777 29.6791L12.1073 29.8227Z" fill="url(#paint0_linear_2_2)"/>
    <path d="M66.8615 56.9599C65.9193 56.9599 65.1072 56.7482 64.4251 56.3249C63.7432 55.9018 63.2226 55.3074 62.8637 54.5419C62.5138 53.7763 62.3388 52.8937 62.3388 51.8942C62.3388 50.8945 62.5138 50.0121 62.8637 49.2466C63.2226 48.481 63.7432 47.8866 64.4251 47.4635C65.1072 47.0402 65.9193 46.8286 66.8615 46.8286C67.8128 46.8286 68.6249 47.0402 69.2981 47.4635C69.9801 47.8866 70.4961 48.481 70.8461 49.2466C71.2051 50.003 71.3845 50.8856 71.3845 51.8942C71.3845 52.9028 71.2051 53.7898 70.8461 54.5553C70.4961 55.3119 69.9801 55.9018 69.2981 56.3249C68.6249 56.7482 67.8128 56.9599 66.8615 56.9599ZM66.8615 55.8116C67.9206 55.8207 68.7281 55.4694 69.2847 54.7581C69.841 54.0466 70.1191 53.0919 70.1191 51.8942C70.1191 50.6965 69.841 49.7464 69.2847 49.044C68.7281 48.3414 67.9206 47.9857 66.8615 47.9768C65.8117 47.9677 65.0086 48.319 64.452 49.0303C63.9048 49.7328 63.6265 50.6874 63.6176 51.8942C63.6085 53.0919 63.8822 54.042 64.4386 54.7444C64.9951 55.4468 65.8026 55.8027 66.8615 55.8116Z" fill="#020D2B"/>
    <path d="M74.6613 50.5568H72.1305V49.4628H78.39V50.5568H75.8592V56.7573H74.6613V50.5568Z" fill="#020D2B"/>
    <path d="M85.7913 56.8924C85.5221 56.9284 85.3202 56.9464 85.1857 56.9464C84.5754 56.9464 84.0236 56.7933 83.5299 56.4871C83.0363 56.1809 82.6504 55.7396 82.3723 55.1632C82.0941 54.587 81.955 53.9026 81.955 53.1099C81.955 52.3264 82.0941 51.6466 82.3723 51.0701C82.6504 50.4848 83.0363 50.039 83.5299 49.7328C84.0236 49.4266 84.5754 49.2737 85.1857 49.2737C85.3202 49.2737 85.5221 49.2917 85.7913 49.3277V47.0988H86.8817V49.3277C87.151 49.2917 87.3528 49.2737 87.4874 49.2737C88.0978 49.2737 88.6496 49.4266 89.1432 49.7328C89.6367 50.039 90.0226 50.4848 90.3008 51.0701C90.5791 51.6466 90.7181 52.3264 90.7181 53.1099C90.7181 53.9026 90.5791 54.587 90.3008 55.1632C90.0226 55.7396 89.6367 56.1809 89.1432 56.4871C88.6496 56.7933 88.0978 56.9464 87.4874 56.9464C87.3528 56.9464 87.151 56.9284 86.8817 56.8924V59.7966H85.7913V56.8924ZM85.7913 50.4354C85.6477 50.4083 85.4952 50.3948 85.3337 50.3948C84.6966 50.3948 84.1806 50.6288 83.7857 51.0972C83.3909 51.5654 83.1933 52.2364 83.1933 53.1099C83.1933 53.9746 83.3952 54.6453 83.7991 55.1226C84.203 55.591 84.719 55.8252 85.3471 55.8252C85.4998 55.8252 85.6477 55.8116 85.7913 55.7847V50.4354ZM86.8817 55.7847C87.0252 55.8116 87.1779 55.8252 87.3393 55.8252C87.9766 55.8252 88.4926 55.591 88.8873 55.1226C89.2912 54.6544 89.4931 53.9834 89.4931 53.1099C89.4931 52.2364 89.2912 51.5654 88.8873 51.0972C88.4926 50.6288 87.9766 50.3948 87.3393 50.3948C87.1957 50.3948 87.0432 50.4083 86.8817 50.4354V55.7847Z" fill="#020D2B"/>
    <path d="M97.7911 50.6785C97.9527 51.0476 98.0334 51.57 98.0334 52.2453V56.7573H96.9699V55.609C96.3867 56.5097 95.4894 56.9599 94.2778 56.9599C93.7572 56.9599 93.3087 56.8653 92.9317 56.6762C92.5548 56.478 92.2721 56.2123 92.0837 55.8792C91.8952 55.5459 91.801 55.1812 91.801 54.785C91.801 53.7043 92.3977 52.9883 93.5913 52.6372C94.2015 52.475 95.1213 52.3175 96.3509 52.1644L96.8489 52.0968C96.8309 51.5025 96.6828 51.0701 96.4047 50.7999C96.1264 50.5208 95.6779 50.3812 95.0586 50.3812C94.601 50.3812 94.2106 50.4848 93.8874 50.6919C93.5644 50.899 93.3399 51.2187 93.2144 51.6511L92.0702 51.3132C92.2496 50.6559 92.5908 50.1515 93.0933 49.8004C93.6048 49.4402 94.2643 49.26 95.0721 49.26C95.7451 49.26 96.3149 49.3816 96.7817 49.6248C97.2482 49.859 97.5848 50.2101 97.7911 50.6785ZM94.4528 55.9467C95.0721 55.9467 95.579 55.789 95.9739 55.4739C96.3778 55.1497 96.6246 54.749 96.7142 54.2717C96.7951 54.0105 96.8354 53.6232 96.8354 53.1099C96.5752 53.1459 96.3643 53.1776 96.2028 53.2045C95.8169 53.2585 95.4354 53.317 95.0586 53.3801C94.6817 53.4341 94.3721 53.4972 94.1297 53.5692C93.3759 53.8034 92.999 54.2042 92.999 54.7715C92.999 55.1046 93.1202 55.3839 93.3625 55.609C93.6048 55.8341 93.9683 55.9467 94.4528 55.9467Z" fill="#020D2B"/>
    <path d="M102.751 56.9733C101.719 56.9644 100.916 56.6311 100.342 55.9738C99.7674 55.3074 99.4577 54.3528 99.413 53.1099C99.4039 53.0108 99.3995 52.8577 99.3995 52.6506C99.3995 52.0742 99.4399 51.4889 99.5206 50.8945C99.6012 50.2912 99.709 49.8184 99.8437 49.4762C99.9693 49.152 100.14 48.8503 100.355 48.571C100.579 48.283 100.831 48.0488 101.109 47.8686C101.477 47.6166 101.894 47.4364 102.361 47.3284C102.828 47.2113 103.442 47.1031 104.205 47.0042C104.761 46.932 105.165 46.8737 105.416 46.8286L105.538 47.9092C105.394 47.9363 105.026 47.9903 104.434 48.0714C103.761 48.1614 103.213 48.2514 102.792 48.3414C102.37 48.4316 102.015 48.5667 101.728 48.7467C101.387 48.9538 101.122 49.2646 100.934 49.6788C100.746 50.093 100.629 50.5703 100.584 51.1107C100.853 50.6965 101.203 50.3857 101.634 50.1786C102.074 49.9624 102.558 49.8544 103.088 49.8544C103.725 49.8544 104.281 50.0075 104.757 50.3137C105.233 50.6108 105.596 51.0252 105.847 51.5566C106.108 52.0879 106.238 52.6957 106.238 53.3801C106.238 54.0917 106.094 54.7219 105.807 55.2714C105.52 55.8116 105.111 56.2303 104.582 56.5277C104.062 56.8248 103.451 56.9733 102.751 56.9733ZM102.818 55.8252C103.51 55.8252 104.039 55.609 104.407 55.1768C104.784 54.7444 104.972 54.1545 104.972 53.4072C104.972 52.6597 104.779 52.0742 104.393 51.6511C104.017 51.2187 103.492 51.0027 102.818 51.0027C102.137 51.0027 101.607 51.2187 101.23 51.6511C100.862 52.0742 100.678 52.6597 100.678 53.4072C100.678 54.1725 100.862 54.767 101.23 55.1903C101.598 55.6136 102.127 55.8252 102.818 55.8252Z" fill="#020D2B"/>
    <path d="M111.068 49.26C111.724 49.26 112.298 49.4265 112.791 49.7599C113.285 50.093 113.662 50.5523 113.922 51.1378C114.182 51.714 114.312 52.367 114.312 53.0965C114.312 53.826 114.178 54.4833 113.909 55.0686C113.648 55.6541 113.272 56.1178 112.778 56.46C112.293 56.7933 111.719 56.9599 111.055 56.9599C110.184 56.9599 109.471 56.6671 108.914 56.0818V59.9992H107.717V49.4628H108.78V50.2732C109.336 49.5979 110.099 49.26 111.068 49.26ZM110.907 55.8521C111.598 55.8521 112.127 55.5956 112.495 55.0823C112.863 54.569 113.047 53.9069 113.047 53.0965C113.047 52.2859 112.863 51.6285 112.495 51.1241C112.127 50.6108 111.589 50.3543 110.88 50.3543C110.189 50.3543 109.664 50.6019 109.305 51.0972C108.955 51.5925 108.78 52.259 108.78 53.0965C108.78 53.934 108.955 54.605 109.305 55.1092C109.664 55.6045 110.198 55.8521 110.907 55.8521Z" fill="#020D2B"/>
    <path d="M121.738 56.7573H120.58V51.3809L116.771 56.7573H115.788V49.4628H116.946V54.7581L120.755 49.4628H121.738V56.7573Z" fill="#020D2B"/>
    <path d="M123.623 49.4628H124.834V52.9748L127.89 49.4628H129.438L126.234 53.1099L129.815 56.7573H128.146L124.834 53.245V56.7573H123.623V49.4628Z" fill="#020D2B"/>
    <path d="M136.434 56.7573H135.277V51.3809L131.467 56.7573H130.485V49.4628H131.642V54.7581L135.452 49.4628H136.434V56.7573Z" fill="#020D2B"/>
    <path d="M141.014 47.0311H142.104L145.766 54.7715L149.414 47.0311H150.518V56.7437H149.374V49.6653L146.089 56.7573H145.443L142.158 49.6653V56.7573H141.014V47.0311Z" fill="#020D2B"/>
    <path d="M158.348 56.7573H157.19V51.3809L153.381 56.7573H152.398V49.4628H153.556V54.7581L157.365 49.4628H158.348V56.7573Z" fill="#020D2B"/>
    <path d="M163.585 49.26C164.24 49.26 164.814 49.4265 165.308 49.7599C165.801 50.093 166.178 50.5523 166.439 51.1378C166.699 51.714 166.829 52.367 166.829 53.0965C166.829 53.826 166.694 54.4833 166.425 55.0686C166.165 55.6541 165.788 56.1178 165.294 56.46C164.81 56.7933 164.235 56.9599 163.571 56.9599C162.701 56.9599 161.987 56.6671 161.431 56.0818V59.9992H160.233V49.4628H161.296V50.2732C161.853 49.5979 162.616 49.26 163.585 49.26ZM163.423 55.8521C164.114 55.8521 164.644 55.5956 165.012 55.0823C165.379 54.569 165.564 53.9069 165.564 53.0965C165.564 52.2859 165.379 51.6285 165.012 51.1241C164.644 50.6108 164.105 50.3543 163.396 50.3543C162.705 50.3543 162.18 50.6019 161.821 51.0972C161.471 51.5925 161.296 52.259 161.296 53.0965C161.296 53.934 161.471 54.605 161.821 55.1092C162.18 55.6045 162.714 55.8521 163.423 55.8521Z" fill="#020D2B"/>
    <path d="M170.999 49.4628H172.022L174.782 55.1226L177.541 49.4628H178.578V56.7573H177.42V51.9617L175.105 56.7573H174.472L172.157 51.9617V56.7573H170.999V49.4628Z" fill="#020D2B"/>
    <path d="M186.05 50.6785C186.212 51.0476 186.293 51.57 186.293 52.2453V56.7573H185.229V55.609C184.646 56.5097 183.748 56.9599 182.537 56.9599C182.016 56.9599 181.568 56.8653 181.191 56.6762C180.814 56.478 180.531 56.2123 180.343 55.8792C180.154 55.5459 180.06 55.1812 180.06 54.785C180.06 53.7043 180.657 52.9883 181.85 52.6372C182.461 52.475 183.38 52.3175 184.61 52.1644L185.108 52.0968C185.09 51.5025 184.942 51.0701 184.664 50.7999C184.386 50.5208 183.937 50.3812 183.318 50.3812C182.86 50.3812 182.47 50.4848 182.147 50.6919C181.823 50.899 181.599 51.2187 181.474 51.6511L180.329 51.3132C180.509 50.6559 180.85 50.1515 181.352 49.8004C181.864 49.4402 182.524 49.26 183.331 49.26C184.004 49.26 184.574 49.3816 185.041 49.6248C185.507 49.859 185.844 50.2101 186.05 50.6785ZM182.712 55.9467C183.331 55.9467 183.838 55.789 184.233 55.4739C184.637 55.1497 184.884 54.749 184.973 54.2717C185.054 54.0105 185.094 53.6232 185.094 53.1099C184.834 53.1459 184.623 53.1776 184.462 53.2045C184.076 53.2585 183.695 53.317 183.318 53.3801C182.941 53.4341 182.631 53.4972 182.389 53.5692C181.635 53.8034 181.258 54.2042 181.258 54.7715C181.258 55.1046 181.379 55.3839 181.621 55.609C181.864 55.8341 182.227 55.9467 182.712 55.9467Z" fill="#020D2B"/>
    <path d="M189.974 50.5568H187.443V49.4628H193.703V50.5568H191.172V56.7573H189.974V50.5568Z" fill="#020D2B"/>
    <path d="M198.328 49.26C198.983 49.26 199.558 49.4265 200.051 49.7599C200.545 50.093 200.922 50.5523 201.182 51.1378C201.442 51.714 201.572 52.367 201.572 53.0965C201.572 53.826 201.438 54.4833 201.169 55.0686C200.908 55.6541 200.531 56.1178 200.038 56.46C199.553 56.7933 198.979 56.9599 198.315 56.9599C197.444 56.9599 196.731 56.6671 196.175 56.0818V59.9992H194.977V49.4628H196.04V50.2732C196.596 49.5979 197.359 49.26 198.328 49.26ZM198.167 55.8521C198.858 55.8521 199.387 55.5956 199.755 55.0823C200.123 54.569 200.307 53.9069 200.307 53.0965C200.307 52.2859 200.123 51.6285 199.755 51.1241C199.387 50.6108 198.849 50.3543 198.14 50.3543C197.449 50.3543 196.924 50.6019 196.565 51.0972C196.215 51.5925 196.04 52.259 196.04 53.0965C196.04 53.934 196.215 54.605 196.565 55.1092C196.924 55.6045 197.458 55.8521 198.167 55.8521Z" fill="#020D2B"/>
    <path d="M208.634 50.6785C208.796 51.0476 208.877 51.57 208.877 52.2453V56.7573H207.813V55.609C207.23 56.5097 206.332 56.9599 205.121 56.9599C204.6 56.9599 204.152 56.8653 203.775 56.6762C203.398 56.478 203.115 56.2123 202.927 55.8792C202.738 55.5459 202.644 55.1812 202.644 54.785C202.644 53.7043 203.241 52.9883 204.434 52.6372C205.045 52.475 205.964 52.3175 207.194 52.1644L207.691 52.0968C207.674 51.5025 207.526 51.0701 207.248 50.7999C206.969 50.5208 206.521 50.3812 205.902 50.3812C205.444 50.3812 205.054 50.4848 204.731 50.6919C204.408 50.899 204.183 51.2187 204.058 51.6511L202.913 51.3132C203.093 50.6559 203.434 50.1515 203.936 49.8004C204.448 49.4402 205.108 49.26 205.915 49.26C206.588 49.26 207.157 49.3816 207.625 49.6248C208.09 49.859 208.428 50.2101 208.634 50.6785ZM205.296 55.9467C205.915 55.9467 206.422 55.789 206.817 55.4739C207.221 55.1497 207.468 54.749 207.557 54.2717C207.637 54.0105 207.679 53.6232 207.679 53.1099C207.418 53.1459 207.207 53.1776 207.046 53.2045C206.66 53.2585 206.279 53.317 205.902 53.3801C205.525 53.4341 205.215 53.4972 204.973 53.5692C204.219 53.8034 203.842 54.2042 203.842 54.7715C203.842 55.1046 203.963 55.3839 204.206 55.609C204.448 55.8341 204.811 55.9467 205.296 55.9467Z" fill="#020D2B"/>
    <path d="M216.826 56.7573H210.633V49.4628H211.831V55.609H215.386V49.4628H216.583V55.663H218.023V58.1081H216.826V56.7573Z" fill="#020D2B"/>
    <path d="M219.987 53.4476C220.032 54.2042 220.243 54.7895 220.62 55.2037C221.005 55.609 221.53 55.8116 222.194 55.8116C222.67 55.8116 223.088 55.7036 223.446 55.4874C223.806 55.2623 224.083 54.9426 224.282 54.5284L225.439 54.9335C225.151 55.573 224.725 56.0729 224.16 56.4331C223.595 56.7842 222.958 56.9599 222.248 56.9599C221.539 56.9599 220.916 56.8022 220.378 56.4871C219.848 56.1718 219.434 55.7261 219.139 55.1497C218.843 54.5733 218.694 53.9069 218.694 53.1505C218.694 52.367 218.839 51.6825 219.126 51.0972C219.412 50.5028 219.821 50.0481 220.351 49.7328C220.881 49.4177 221.495 49.26 222.194 49.26C222.921 49.26 223.541 49.4311 224.052 49.7733C224.574 50.1066 224.959 50.5883 225.209 51.2187C225.47 51.8491 225.581 52.5921 225.546 53.4476H219.987ZM222.236 50.3406C221.588 50.3406 221.077 50.5254 220.701 50.8945C220.324 51.2549 220.094 51.7816 220.014 52.475H224.321C224.16 51.0521 223.465 50.3406 222.236 50.3406Z" fill="#020D2B"/>
    <path d="M230.148 49.4628C230.597 49.4628 230.988 49.5077 231.319 49.5979C231.722 49.7059 232.045 49.9264 232.289 50.2597C232.539 50.5839 232.666 50.9801 232.666 51.4483C232.666 51.9797 232.508 52.3941 232.194 52.6912C232.041 52.8443 231.883 52.9479 231.722 53.0019C231.875 53.0288 232.037 53.0919 232.206 53.191C232.754 53.5061 233.028 54.024 233.028 54.7444C233.028 55.2308 232.908 55.6359 232.666 55.9601C232.432 56.2843 232.105 56.5097 231.683 56.6357C231.387 56.7168 230.992 56.7573 230.497 56.7573H227.052V49.4628H230.148ZM230.067 52.6101C230.39 52.6101 230.642 52.5741 230.82 52.5021C231.019 52.4301 231.166 52.3084 231.265 52.1373C231.372 51.9573 231.426 51.7591 231.426 51.5429C231.426 51.3089 231.368 51.1018 231.252 50.9216C231.145 50.7414 230.988 50.6199 230.781 50.5568C230.582 50.4848 230.309 50.4488 229.959 50.4488H228.263V52.6101H230.067ZM230.431 55.771C230.7 55.771 230.928 55.7396 231.116 55.6765C231.341 55.6225 231.507 55.5054 231.614 55.3254C231.732 55.1452 231.79 54.9381 231.79 54.7039C231.79 54.4248 231.71 54.1951 231.548 54.0151C231.387 53.826 231.176 53.7089 230.915 53.6638C230.789 53.6278 230.592 53.6098 230.323 53.6098H228.263V55.771H230.431Z" fill="#020D2B"/>
    <defs>
        <linearGradient id="paint0_linear_2_2" x1="9.43407" y1="20.5822" x2="45.1316" y2="20.5822" gradientUnits="userSpaceOnUse">
            <stop stop-color="#227783" stop-opacity="0.9373"/>
            <stop offset="0.05449" stop-color="#26818E" stop-opacity="0.94596"/>
            <stop offset="0.20178" stop-color="#2F99A8" stop-opacity="0.96551"/>
            <stop offset="0.35986" stop-color="#36ACBD" stop-opacity="0.98079"/>
            <stop offset="0.53173" stop-color="#3BB9CB" stop-opacity="0.99162"/>
            <stop offset="0.72761" stop-color="#3EC1D3" stop-opacity="0.99801"/>
            <stop offset="1" stop-color="#3FC3D6"/>
        </linearGradient>
    </defs>
</svg>
